HIERARCHY
ROOT hip
{
	OFFSET	0.00  0.00  0.00 
	CHANNELS 6 Xposition Yposition Zposition Xrotation Zrotation Yrotation
	JOINT abdomen
	{
		OFFSET	0.000000 3.402643 0.000000
		CHANNELS 3 Xrotation Zrotation Yrotation
		JOINT chest
		{
			OFFSET	0.000000 8.438564 -0.680529
			CHANNELS 3 Xrotation Zrotation Yrotation
			JOINT neck
			{
				OFFSET	0.000000 10.207942 -0.272212
				CHANNELS 3 Xrotation Zrotation Yrotation
				JOINT head
				{
					OFFSET	0.000000 3.130431 0.000000
					CHANNELS 3 Xrotation Zrotation Yrotation
					End Site
					{
						OFFSET 0.000000 3.130435 0.000000
					}
				}
			}
			JOINT lCollar
			{
				OFFSET	3.402647 6.669187 -0.816635
				CHANNELS 3 Yrotation Zrotation Xrotation
				JOINT lShldr
				{
					OFFSET	3.266541 0.000000 0.000000
					CHANNELS 3 Zrotation Yrotation Xrotation
					JOINT lForeArm
					{
						OFFSET	10.071835 0.000000 0.000000
						CHANNELS 3 Yrotation Zrotation Xrotation
						JOINT lHand
						{
							OFFSET	8.438563 0.000000 0.000000
							CHANNELS 3 Zrotation Yrotation Xrotation
							End Site
							{
								OFFSET 4.083176 0.000000 0.000000
							}
						}
					}
				}
			}
			JOINT rCollar
			{
				OFFSET	-3.538753 6.669187 -0.816635
				CHANNELS 3 Yrotation Zrotation Xrotation
				JOINT rShldr
				{
					OFFSET	-3.130435 0.000000 0.000000
					CHANNELS 3 Zrotation Yrotation Xrotation
					JOINT rForeArm
					{
						OFFSET	-10.207940 0.000000 0.000000
						CHANNELS 3 Yrotation Zrotation Xrotation
						JOINT rHand
						{
							OFFSET	-8.302459 0.000000 0.000000
							CHANNELS 3 Zrotation Yrotation Xrotation
							End Site
							{
								OFFSET -4.083176 0.000000 0.000000
							}
						}
					}
				}
			}
		}
	}
	JOINT lThigh
	{
		OFFSET	5.308129 -1.633274 1.361059
		CHANNELS 3 Xrotation Zrotation Yrotation
		JOINT lShin
		{
			OFFSET	-2.041588 -20.007561 0.000000
			CHANNELS 3 Xrotation Zrotation Yrotation
			JOINT lFoot
			{
				OFFSET	0.000000 -19.190928 -1.224953
				CHANNELS 3 Xrotation Yrotation Zrotation
				End Site
				{
					OFFSET 0.000000 -2.449905 4.627600
				}
			}
		}
	}
	JOINT rThigh
	{
		OFFSET	-5.308129 -1.633274 1.361059
		CHANNELS 3 Xrotation Zrotation Yrotation
		JOINT rShin
		{
			OFFSET	2.041588 -20.007561 0.000000
			CHANNELS 3 Xrotation Zrotation Yrotation
			JOINT rFoot
			{
				OFFSET	0.000000 -19.190928 -1.224953
				CHANNELS 3 Xrotation Yrotation Zrotation
				End Site
				{
					OFFSET 0.000000 -2.449905 4.627600
				}
			}
		}
	}
}
MOTION
Frames:     20
Frame Time: 0.033333
0.721400 12.962086 -32.939163 -77.294922 3.916016 -7.518864 -3.251953 -3.437500 -2.109961 -8.564453 7.021484 -1.190237 28.642578 2.294922 2.373047 -18.349609 -4.804756 -10.772452 9.277344 -6.083985 0.634766 -70.057457 -15.011206 18.660021 16.562500 -27.422968 13.652225 5.966797 -0.068361 0.166018 -5.009840 5.586020 0.214833 71.630859 8.681640 18.544926 -10.839843 1.748047 2.616903 -5.957031 0.058594 0.166016 -16.640625 0.712891 1.875004 41.376953 -7.910817 -4.463110 16.259766 8.964845 -2.753978 -26.308594 -12.656250 3.076173 56.875004 6.025857 5.664347 17.500000 4.111328 -8.105566 
0.738272 10.817426 -33.863171 -80.781250 3.945313 -7.772855 -2.695334 -3.916093 -2.187509 -7.919922 8.173829 -1.103542 32.089844 2.382995 2.744045 -18.349609 -4.804756 -10.772452 9.277344 -6.083985 0.634766 -70.057457 -15.011206 18.660021 16.435547 -27.579210 13.964720 5.966797 -0.068361 0.166018 -5.009840 5.586020 0.214833 71.630859 8.681640 18.544926 -10.195619 3.447368 2.636622 -5.957031 0.058594 0.166016 -16.767578 0.937500 1.816411 41.865234 -7.901052 -4.511943 19.814453 8.867661 -2.656282 -24.843750 -12.470703 2.751798 53.505859 6.318870 5.400654 18.925781 4.258035 -8.173485 
0.752295 9.126277 -34.627129 -83.574097 3.994216 -7.968118 -2.226578 -4.306725 -2.246124 -7.548997 9.101762 -1.035107 34.778568 2.461134 3.046915 -18.349609 -4.804756 -10.772452 9.277344 -6.083985 0.634766 -70.057457 -15.011206 18.660021 16.318357 -27.695313 14.228516 5.966797 -0.068361 0.166018 -5.009840 5.586020 0.214833 71.630859 8.681640 18.544926 -9.697266 4.726563 2.656287 -5.957031 0.058594 0.166016 -16.259766 0.996094 1.748052 40.976563 -7.871094 -4.414063 23.281250 8.720703 -2.656318 -23.037109 -12.421876 2.470703 49.755859 6.699219 5.048829 20.576170 4.423828 -8.271484 
0.761879 8.017264 -35.147064 -85.400391 4.042969 -8.085345 -1.914073 -4.550807 -2.285144 -7.392739 9.707239 -0.976515 36.552738 2.529503 3.232312 -18.349609 -4.804756 -10.772452 9.277344 -6.083985 0.634766 -70.057457 -15.011206 18.660021 16.220703 -27.774519 14.423688 5.966797 -0.068361 0.166018 -5.009840 5.586020 0.214833 71.630859 8.681640 18.544926 -9.385025 5.547026 2.675684 -5.957031 0.058594 0.166016 -15.742188 0.996094 1.689458 40.048824 -7.871094 -4.277344 25.732422 8.564453 -2.666016 -21.523439 -12.421876 2.275390 46.748043 7.021484 4.765724 21.914063 4.492452 -8.319938 
0.765427 7.619015 -35.339035 -86.074173 4.072313 -8.143748 -1.796885 -4.648527 -2.304724 -7.353676 9.922376 -0.966780 37.187500 2.549037 3.300670 -18.349609 -4.804756 -10.772452 9.277344 -6.083985 0.634766 -70.057457 -15.011206 18.660021 16.152344 -27.823343 14.540874 5.966797 -0.068361 0.166018 -5.009840 5.586020 0.214833 71.630859 8.681640 18.544926 -9.267578 5.820313 2.665071 -5.957031 0.058594 0.166016 -15.419921 0.966797 1.631024 39.433590 -7.861328 -4.189453 26.748047 8.525967 -2.714955 -20.859375 -12.402344 2.187500 45.449219 7.080675 4.609601 22.470703 4.531250 -8.339953 
0.765427 7.619015 -35.339035 -86.074173 4.072313 -8.143748 -1.796885 -4.648527 -2.304724 -7.353676 9.922376 -0.966780 37.187500 2.549037 3.300670 -18.349609 -4.804756 -10.772452 9.277344 -6.083985 0.634766 -70.057457 -15.011206 18.660021 16.123047 -27.842873 14.589699 5.966797 -0.068361 0.166018 -5.009840 5.586020 0.214833 71.630859 8.681640 18.544926 -9.267578 5.820313 2.665071 -5.957031 0.058594 0.166016 -15.419921 0.966797 1.631024 39.433590 -7.861328 -4.189453 26.748047 8.525967 -2.714955 -20.859375 -12.402344 2.187500 45.449219 7.080675 4.609601 22.470703 4.531250 -8.339953 
0.765427 7.619015 -35.339035 -86.074173 4.072313 -8.143748 -1.796885 -4.648527 -2.304724 -7.353676 9.922376 -0.966780 37.187500 2.549037 3.300670 -18.349609 -4.804756 -10.772452 9.277344 -6.083985 0.634766 -70.057457 -15.011206 18.660021 16.123047 -27.842873 14.589699 5.966797 -0.068361 0.166018 -5.009840 5.586020 0.214833 71.630859 8.681640 18.544926 -9.267578 5.820313 2.665071 -5.957031 0.058594 0.166016 -15.419921 0.966797 1.631024 39.433590 -7.861328 -4.189453 26.748047 8.525967 -2.714955 -20.859375 -12.402344 2.187500 45.449219 7.080675 4.609601 22.470703 4.531250 -8.339953 
0.765427 7.619015 -35.339035 -86.074173 4.072313 -8.143748 -1.796885 -4.648527 -2.304724 -7.353676 9.922376 -0.966780 37.187500 2.549037 3.300670 -18.349609 -4.804756 -10.772452 9.277344 -6.083985 0.634766 -70.057457 -15.011206 18.660021 16.123047 -27.842873 14.589699 5.966797 -0.068361 0.166018 -5.009840 5.586020 0.214833 71.630859 8.681640 18.544926 -9.267578 5.820313 2.665071 -5.957031 0.058594 0.166016 -15.419921 0.966797 1.631024 39.433590 -7.861328 -4.189453 26.748047 8.525967 -2.714955 -20.859375 -12.402344 2.187500 45.449219 7.080675 4.609601 22.470703 4.531250 -8.339953 
0.765427 7.619015 -35.339035 -86.074173 4.072313 -8.143748 -1.796885 -4.648527 -2.304724 -7.353676 9.922376 -0.966780 37.187500 2.549037 3.300670 -18.349609 -4.804756 -10.772452 9.277344 -6.083985 0.634766 -70.057457 -15.011206 18.660021 16.123047 -27.842873 14.589699 5.966797 -0.068361 0.166018 -5.009840 5.586020 0.214833 71.630859 8.681640 18.544926 -9.267578 5.820313 2.665071 -5.957031 0.058594 0.166016 -15.419921 0.966797 1.631024 39.433590 -7.861328 -4.189453 26.748047 8.525967 -2.714955 -20.859375 -12.402344 2.187500 45.449219 7.080675 4.609601 22.470703 4.531250 -8.339953 
0.765427 7.619015 -35.339035 -86.074173 4.072313 -8.143748 -1.796885 -4.648527 -2.304724 -7.353676 9.922376 -0.966780 37.187500 2.549037 3.300670 -18.349609 -4.804756 -10.772452 9.277344 -6.083985 0.634766 -70.057457 -15.011206 18.660021 16.123047 -27.842873 14.589699 5.966797 -0.068361 0.166018 -5.009840 5.586020 0.214833 71.630859 8.681640 18.544926 -9.267578 5.820313 2.665071 -5.957031 0.058594 0.166016 -15.419921 0.966797 1.631024 39.433590 -7.861328 -4.189453 26.748047 8.525967 -2.714955 -20.859375 -12.402344 2.187500 45.449219 7.080675 4.609601 22.470703 4.531250 -8.339953 
0.765427 7.619015 -35.339035 -86.074173 4.072313 -8.143748 -1.796885 -4.648527 -2.304724 -7.353676 9.922376 -0.966780 37.187500 2.549037 3.300670 -18.349609 -4.804756 -10.772452 9.277344 -6.083985 0.634766 -70.057457 -15.011206 18.660021 16.123047 -27.842873 14.589699 5.966797 -0.068361 0.166018 -5.009840 5.586020 0.214833 71.630859 8.681640 18.544926 -9.267578 5.820313 2.665071 -5.957031 0.058594 0.166016 -15.419921 0.966797 1.631024 39.433590 -7.861328 -4.189453 26.748047 8.525967 -2.714955 -20.859375 -12.402344 2.187500 45.449219 7.080675 4.609601 22.470703 4.531250 -8.339953 
0.765427 7.619015 -35.339035 -86.074173 4.072313 -8.143748 -1.796885 -4.648527 -2.304724 -7.353676 9.922376 -0.966780 37.187500 2.549037 3.300670 -18.349609 -4.804756 -10.772452 9.277344 -6.083985 0.634766 -70.057457 -15.011206 18.660021 16.123047 -27.842873 14.589699 5.966797 -0.068361 0.166018 -5.009840 5.586020 0.214833 71.630859 8.681640 18.544926 -9.267578 5.820313 2.665071 -5.957031 0.058594 0.166016 -15.419921 0.966797 1.631024 39.433590 -7.861328 -4.189453 26.748047 8.525967 -2.714955 -20.859375 -12.402344 2.187500 45.449219 7.080675 4.609601 22.470703 4.531250 -8.339953 
0.765427 7.619015 -35.339035 -86.074173 4.072313 -8.143748 -1.796885 -4.648527 -2.304724 -7.353676 9.922376 -0.966780 37.187500 2.549037 3.300670 -18.349609 -4.804756 -10.772452 9.277344 -6.083985 0.634766 -70.057457 -15.011206 18.660021 16.123047 -27.842873 14.589699 5.966797 -0.068361 0.166018 -5.009840 5.586020 0.214833 71.630859 8.681640 18.544926 -9.267578 5.820313 2.665071 -5.957031 0.058594 0.166016 -15.419921 0.966797 1.631024 39.433590 -7.861328 -4.189453 26.748047 8.525967 -2.714955 -20.859375 -12.402344 2.187500 45.449219 7.080675 4.609601 22.470703 4.531250 -8.339953 
0.765427 7.619015 -35.339035 -86.074173 4.072313 -8.143748 -1.796885 -4.648527 -2.304724 -7.353676 9.922376 -0.966780 37.187500 2.549037 3.300670 -18.349609 -4.804756 -10.772452 9.277344 -6.083985 0.634766 -70.057457 -15.011206 18.660021 16.123047 -27.842873 14.589699 5.966797 -0.068361 0.166018 -5.009840 5.586020 0.214833 71.630859 8.681640 18.544926 -9.267578 5.820313 2.665071 -5.957031 0.058594 0.166016 -15.419921 0.966797 1.631024 39.433590 -7.861328 -4.189453 26.748047 8.525967 -2.714955 -20.859375 -12.402344 2.187500 45.449219 7.080675 4.609601 22.470703 4.531250 -8.339953 
0.765427 7.619015 -35.339035 -86.074173 4.072313 -8.143748 -1.796885 -4.648527 -2.304724 -7.353676 9.922376 -0.966780 37.187500 2.549037 3.300670 -18.349609 -4.804756 -10.772452 9.277344 -6.083985 0.634766 -70.057457 -15.011206 18.660021 16.123047 -27.842873 14.589699 5.966797 -0.068361 0.166018 -5.009840 5.586020 0.214833 71.630859 8.681640 18.544926 -9.267578 5.820313 2.665071 -5.957031 0.058594 0.166016 -15.419921 0.966797 1.631024 39.433590 -7.861328 -4.189453 26.748047 8.525967 -2.714955 -20.859375 -12.402344 2.187500 45.449219 7.080675 4.609601 22.470703 4.531250 -8.339953 
0.765427 7.619015 -35.339035 -86.074173 4.072313 -8.143748 -1.796885 -4.648527 -2.304724 -7.353676 9.922376 -0.966780 37.187500 2.549037 3.300670 -18.349609 -4.804756 -10.772452 9.277344 -6.083985 0.634766 -70.057457 -15.011206 18.660021 16.123047 -27.842873 14.589699 5.966797 -0.068361 0.166018 -5.009840 5.586020 0.214833 71.630859 8.681640 18.544926 -9.267578 5.820313 2.665071 -5.957031 0.058594 0.166016 -15.419921 0.966797 1.631024 39.433590 -7.861328 -4.189453 26.748047 8.525967 -2.714955 -20.859375 -12.402344 2.187500 45.449219 7.080675 4.609601 22.470703 4.531250 -8.339953 
0.765427 7.619015 -35.339035 -86.074173 4.072313 -8.143748 -1.796885 -4.648527 -2.304724 -7.353676 9.922376 -0.966780 37.187500 2.549037 3.300670 -18.349609 -4.804756 -10.772452 9.277344 -6.083985 0.634766 -70.057457 -15.011206 18.660021 16.123047 -27.842873 14.589699 5.966797 -0.068361 0.166018 -5.009840 5.586020 0.214833 71.630859 8.681640 18.544926 -9.267578 5.820313 2.665071 -5.957031 0.058594 0.166016 -15.419921 0.966797 1.631024 39.433590 -7.861328 -4.189453 26.748047 8.525967 -2.714955 -20.859375 -12.402344 2.187500 45.449219 7.080675 4.609601 22.470703 4.531250 -8.339953 
0.765427 7.619015 -35.339035 -86.074173 4.072313 -8.143748 -1.796885 -4.648527 -2.304724 -7.353676 9.922376 -0.966780 37.187500 2.549037 3.300670 -18.349609 -4.804756 -10.772452 9.277344 -6.083985 0.634766 -70.057457 -15.011206 18.660021 16.123047 -27.842873 14.589699 5.966797 -0.068361 0.166018 -5.009840 5.586020 0.214833 71.630859 8.681640 18.544926 -9.267578 5.820313 2.665071 -5.957031 0.058594 0.166016 -15.419921 0.966797 1.631024 39.433590 -7.861328 -4.189453 26.748047 8.525967 -2.714955 -20.859375 -12.402344 2.187500 45.449219 7.080675 4.609601 22.470703 4.531250 -8.339953 
0.765427 7.619015 -35.339035 -86.074173 4.072313 -8.143748 -1.796885 -4.648527 -2.304724 -7.353676 9.922376 -0.966780 37.187500 2.549037 3.300670 -18.349609 -4.804756 -10.772452 9.277344 -6.083985 0.634766 -70.057457 -15.011206 18.660021 16.123047 -27.842873 14.589699 5.966797 -0.068361 0.166018 -5.009840 5.586020 0.214833 71.630859 8.681640 18.544926 -9.267578 5.820313 2.665071 -5.957031 0.058594 0.166016 -15.419921 0.966797 1.631024 39.433590 -7.861328 -4.189453 26.748047 8.525967 -2.714955 -20.859375 -12.402344 2.187500 45.449219 7.080675 4.609601 22.470703 4.531250 -8.339953 
0.765427 7.619015 -35.339035 -86.074173 4.072313 -8.143748 -1.796885 -4.648527 -2.304724 -7.353676 9.922376 -0.966780 37.187500 2.549037 3.300670 -18.349609 -4.804756 -10.772452 9.277344 -6.083985 0.634766 -70.057457 -15.011206 18.660021 16.123047 -27.842873 14.589699 5.966797 -0.068361 0.166018 -5.009840 5.586020 0.214833 71.630859 8.681640 18.544926 -9.267578 5.820313 2.665071 -5.957031 0.058594 0.166016 -15.419921 0.966797 1.631024 39.433590 -7.861328 -4.189453 26.748047 8.525967 -2.714955 -20.859375 -12.402344 2.187500 45.449219 7.080675 4.609601 22.470703 4.531250 -8.339953 
